<svg xmlns="http://www.w3.org/2000/svg" xml:space="preserve" id="Layer_1" x="0" y="0" style="enable-background:new 0 0 34 34" version="1.1" viewBox="0 0 34 34"><style>.st2{fill:#78909c}</style><circle cx="17" cy="17" r="16.5" style="fill:#fff"/><path d="M17 34C7.6 34 0 26.4 0 17S7.6 0 17 0s17 7.6 17 17-7.6 17-17 17zm0-33C8.2 1 1 8.2 1 17s7.2 16 16 16 16-7.2 16-16S25.8 1 17 1z" style="fill:#d0dae4"/><path d="M17 20.7c-3.5 0-6.4-2.9-6.4-6.4 0-3.5 2.9-6.4 6.4-6.4 3.5 0 6.4 2.9 6.4 6.4 0 3.5-2.9 6.4-6.4 6.4zm0-11.1c-2.5 0-4.6 2.1-4.6 4.6s2.1 4.6 4.6 4.6c2.5 0 4.6-2.1 4.6-4.6S19.5 9.6 17 9.6z" class="st2"/><path d="M25.3 25.5c-.3 0-.6-.2-.8-.5-.8-1.3-1.9-2.4-3.2-3.2-2.6-1.5-6.1-1.5-8.7 0-1.3.8-2.4 1.9-3.2 3.2-.2.4-.8.6-1.2.3-.4-.2-.6-.8-.3-1.2.9-1.6 2.3-2.9 3.9-3.9 3.2-1.8 7.3-1.8 10.5 0 1.6.9 2.9 2.3 3.9 3.9.2.4.1 1-.3 1.2-.3.1-.4.2-.6.2z" class="st2"/></svg>