<svg xmlns="http://www.w3.org/2000/svg" width="106" height="31" fill="none"><path fill="#13AA70" d="M2.805 7.44H.953v15.131h2.95V11.115c1.186-.751 2.488-1.447 4.08-1.447 1.361 0 2.112.58 2.112 2.344V22.57h2.95V11.115c1.127-.721 2.518-1.447 4.08-1.447 1.387 0 2.142.58 2.142 2.344V22.57h2.924v-11.34c0-3.01-1.707-4.021-3.76-4.021-2.054 0-4.136.956-5.643 2.198-.52-1.622-1.908-2.198-3.47-2.198-2.142 0-4.05 1.012-5.412 2.083-.06-1.533-.375-1.852-1.1-1.852ZM27.539 27.257h2.547l7.55-19.01V7.44h-2.543l-4.025 10.616h-.026L26.732 7.44h-2.779v.808L29.625 21.7l-2.086 4.716v.84Z"/><path fill="#2357A4" d="M46.215 6.872h.056l2.358 7.241h-4.716l2.302-7.241Zm-8.309 15.242h3.508l1.573-4.996h6.624l1.63 4.996h4.24v-1.15L48.94 2.468h-4.518L37.91 20.964v1.15h-.004ZM62.277 22.28c4.266 0 6.148-1.881 6.148-4.771 0-2.89-1.458-4.125-4.97-4.575-2.019-.253-2.752-.647-2.752-1.402 0-.84.618-1.32 2.217-1.32 1.518 0 2.693.475 3.37.981h1.235V8.218c-1.18-.588-2.5-1.012-4.63-1.012-3.624 0-5.84 1.655-5.84 4.63 0 2.976 1.71 4.1 4.939 4.49 2.075.253 2.611.673 2.611 1.573 0 .9-.87 1.377-2.525 1.377-1.655 0-2.946-.618-3.623-1.235h-1.29v3.03c1.149.648 2.692 1.21 5.106 1.21h.004ZM69.766 10.13h1.74v8.026c0 3.061 1.711 4.18 4.55 4.18 1.148 0 1.963-.196 2.58-.393v-2.47h-1.123c-1.346 0-1.908-.394-1.908-1.796v-7.55h2.976V7.373h-2.976V3.442h-4.099v3.932h-1.74v2.756ZM87.389 9.735c1.6 0 2.5.84 2.581 3.452h-5.5c.308-2.752 1.487-3.452 2.919-3.452Zm6.568 5.922c0-.142.056-.76.056-1.265 0-4.857-2.302-7.242-6.624-7.242-4.099 0-7.186 2.92-7.186 7.662 0 4.743 2.637 7.495 7.465 7.495 2.946 0 4.604-.759 5.784-1.432v-2.693h-1.265c-.956.703-2.246 1.235-3.902 1.235-2.272 0-3.678-.815-3.871-3.76h9.543ZM104.851 10.606h.703V7.377a3.098 3.098 0 0 0-.897-.141c-1.826 0-3.172.926-4.098 1.908-.142-1.458-.562-1.767-1.265-1.767h-2.778v14.736h4.098V11.476c.785-.42 2.217-.87 4.24-.87h-.003Z"/></svg>