<svg xmlns="http://www.w3.org/2000/svg" xml:space="preserve" style="enable-background:new 0 0 15.6 15.6" viewBox="0 0 15.6 15.6"><path d="M7.8 3.8c-2.2 0-4 1.8-4 4s1.8 4 4 4 4-1.8 4-4-1.8-4-4-4zm0 6.6c-1.4 0-2.6-1.2-2.6-2.6 0-1.4 1.2-2.6 2.6-2.6 1.4 0 2.6 1.2 2.6 2.6 0 1.4-1.2 2.6-2.6 2.6zm5.1-6.8c0 .5-.4.9-.9.9s-.9-.4-.9-.9.4-.9.9-.9.9.4.9.9zm2.6 1c-.1-1.2-.3-2.4-1.3-3.3-.9-.9-2-1.2-3.3-1.3-1.2 0-5 0-6.3.1-1.3 0-2.4.3-3.3 1.2-.9.9-1.2 2-1.3 3.3C0 5.9 0 9.7.1 11c.1 1.2.3 2.4 1.3 3.3.9.9 2 1.2 3.3 1.3 1.3.1 5.1.1 6.4 0 1.2-.1 2.4-.3 3.3-1.3.9-.9 1.2-2 1.3-3.3-.1-1.3-.1-5.1-.2-6.4zm-1.6 7.8c-.3.7-.8 1.2-1.5 1.5-1 .4-3.5.3-4.6.3s-3.6.1-4.6-.3c-.7-.3-1.2-.8-1.5-1.5-.4-1-.3-3.5-.3-4.6 0-1.1-.1-3.6.3-4.6.3-.7.8-1.2 1.5-1.5 1-.4 3.5-.3 4.6-.3s3.6-.1 4.6.3c.7.3 1.2.8 1.5 1.5.4 1 .3 3.5.3 4.6 0 1.1.1 3.6-.3 4.6z" style="fill:#1976d2"/></svg>